<?xml version="1.0" encoding="UTF-8" ?><!DOCTYPE svg PUBLIC "-//W3C//DTD SVG 1.1 Basic//EN" "http://www.w3.org/Graphics/SVG/1.1/DTD/svg11-basic.dtd">
<svg xmlns="http://www.w3.org/2000/svg" xmlns:xlink="http://www.w3.org/1999/xlink" width="120" height="42" viewBox="0 0 120 42" baseProfile="basic" version="1.1">
<g id="surface1">
<path style=" stroke:none;fill-rule:nonzero;fill:rgb(66.666667%,69.803922%,67.058824%);fill-opacity:1;" d="M 3.410156 0.445313 L 116.761719 0.648438 C 118.347656 0.648438 119.761719 0.414063 119.761719 3.808594 L 119.621094 41.136719 L 0.546875 41.136719 L 0.546875 3.667969 C 0.546875 1.996094 0.710938 0.445313 3.410156 0.445313 Z "/>
<path style=" stroke:none;fill-rule:nonzero;fill:rgb(0%,0%,0%);fill-opacity:1;" d="M 117.753906 0 L 2.246094 0 C 1.007813 0 0 1.007813 0 2.246094 L 0 41.492188 C 0 41.773438 0.226563 42 0.507813 42 L 119.492188 42 C 119.773438 42 120 41.773438 120 41.492188 L 120 2.246094 C 120 1.007813 118.992188 0 117.753906 0 Z M 2.246094 1.015625 L 117.753906 1.015625 C 118.433594 1.015625 118.984375 1.566406 118.984375 2.246094 C 118.984375 2.246094 118.984375 18.039063 118.984375 29.460938 L 36.429688 29.460938 C 33.402344 34.933594 27.574219 38.644531 20.882813 38.644531 C 14.1875 38.644531 8.359375 34.933594 5.335938 29.460938 L 1.015625 29.460938 C 1.015625 18.039063 1.015625 2.246094 1.015625 2.246094 C 1.015625 1.566406 1.566406 1.015625 2.246094 1.015625 Z "/>
<path style=" stroke:none;fill-rule:nonzero;fill:rgb(100%,100%,100%);fill-opacity:1;" d="M 34.523438 19.542969 C 34.527344 27.074219 28.425781 33.179688 20.894531 33.1875 C 13.367188 33.191406 7.257813 27.089844 7.253906 19.5625 C 7.253906 19.554688 7.253906 19.550781 7.253906 19.542969 C 7.25 12.015625 13.351563 5.90625 20.878906 5.902344 C 28.410156 5.898438 34.519531 12 34.523438 19.527344 C 34.523438 19.535156 34.523438 19.539063 34.523438 19.542969 Z "/>
<path style=" stroke:none;fill-rule:nonzero;fill:rgb(0%,0%,0%);fill-opacity:1;" d="M 31.972656 8.441406 C 34.996094 11.464844 36.507813 15.164063 36.507813 19.542969 C 36.507813 23.925781 35.023438 27.585938 32.050781 30.53125 C 28.894531 33.636719 25.167969 35.183594 20.867188 35.183594 C 16.621094 35.183594 12.957031 33.648438 9.882813 30.570313 C 6.804688 27.496094 5.269531 23.820313 5.269531 19.542969 C 5.269531 15.269531 6.804688 11.570313 9.882813 8.441406 C 12.878906 5.414063 16.542969 3.90625 20.867188 3.90625 C 25.246094 3.90625 28.949219 5.414063 31.972656 8.441406 Z M 11.917969 10.472656 C 9.359375 13.054688 8.082031 16.078125 8.082031 19.550781 C 8.082031 23.015625 9.347656 26.015625 11.878906 28.542969 C 14.410156 31.074219 17.421875 32.339844 20.914063 32.339844 C 24.410156 32.339844 27.445313 31.0625 30.03125 28.507813 C 32.480469 26.132813 33.707031 23.148438 33.707031 19.546875 C 33.707031 15.976563 32.460938 12.945313 29.96875 10.453125 C 27.480469 7.964844 24.460938 6.71875 20.914063 6.71875 C 17.367188 6.71875 14.367188 7.972656 11.917969 10.472656 Z M 18.644531 18.023438 C 18.253906 17.171875 17.667969 16.746094 16.890625 16.746094 C 15.511719 16.746094 14.820313 17.671875 14.820313 19.527344 C 14.820313 21.382813 15.511719 22.3125 16.890625 22.3125 C 17.800781 22.3125 18.449219 21.859375 18.839844 20.953125 L 20.75 21.972656 C 19.839844 23.589844 18.472656 24.398438 16.652344 24.398438 C 15.246094 24.398438 14.121094 23.96875 13.273438 23.109375 C 12.429688 22.246094 12.003906 21.058594 12.003906 19.546875 C 12.003906 18.058594 12.441406 16.875 13.3125 16 C 14.183594 15.125 15.273438 14.691406 16.574219 14.691406 C 18.5 14.691406 19.878906 15.449219 20.714844 16.964844 Z M 27.632813 18.023438 C 27.242188 17.171875 26.667969 16.746094 25.914063 16.746094 C 24.507813 16.746094 23.804688 17.671875 23.804688 19.527344 C 23.804688 21.382813 24.507813 22.3125 25.914063 22.3125 C 26.828125 22.3125 27.464844 21.859375 27.828125 20.953125 L 29.78125 21.972656 C 28.875 23.589844 27.507813 24.398438 25.691406 24.398438 C 24.289063 24.398438 23.164063 23.96875 22.320313 23.109375 C 21.476563 22.246094 21.050781 21.058594 21.050781 19.546875 C 21.050781 18.058594 21.480469 16.875 22.339844 16 C 23.195313 15.125 24.289063 14.691406 25.613281 14.691406 C 27.535156 14.691406 28.914063 15.449219 29.742188 16.964844 Z "/>
<path style=" stroke:none;fill-rule:nonzero;fill:rgb(100%,100%,100%);fill-opacity:1;" d="M 48.09375 32.746094 C 48.410156 32.746094 48.699219 32.777344 48.957031 32.832031 C 49.21875 32.886719 49.441406 32.976563 49.625 33.105469 C 49.8125 33.230469 49.957031 33.398438 50.058594 33.609375 C 50.160156 33.820313 50.210938 34.078125 50.210938 34.386719 C 50.210938 34.722656 50.136719 35 49.984375 35.222656 C 49.832031 35.445313 49.609375 35.625 49.308594 35.769531 C 49.71875 35.886719 50.027344 36.09375 50.226563 36.386719 C 50.429688 36.679688 50.53125 37.035156 50.53125 37.449219 C 50.53125 37.78125 50.464844 38.070313 50.335938 38.316406 C 50.203125 38.558594 50.027344 38.761719 49.808594 38.914063 C 49.589844 39.070313 49.339844 39.183594 49.058594 39.257813 C 48.773438 39.332031 48.484375 39.371094 48.1875 39.371094 L 44.972656 39.371094 L 44.972656 32.746094 Z M 47.90625 35.425781 C 48.167969 35.425781 48.382813 35.363281 48.546875 35.242188 C 48.714844 35.117188 48.796875 34.917969 48.796875 34.640625 C 48.796875 34.484375 48.769531 34.359375 48.714844 34.261719 C 48.660156 34.160156 48.585938 34.085938 48.492188 34.027344 C 48.398438 33.972656 48.292969 33.933594 48.171875 33.914063 C 48.050781 33.890625 47.925781 33.878906 47.796875 33.878906 L 46.429688 33.878906 L 46.429688 35.425781 Z M 47.992188 38.234375 C 48.136719 38.234375 48.269531 38.222656 48.402344 38.195313 C 48.53125 38.167969 48.644531 38.121094 48.746094 38.054688 C 48.84375 37.992188 48.921875 37.902344 48.980469 37.789063 C 49.042969 37.679688 49.070313 37.539063 49.070313 37.363281 C 49.070313 37.023438 48.972656 36.78125 48.78125 36.636719 C 48.589844 36.492188 48.335938 36.417969 48.019531 36.417969 L 46.429688 36.417969 L 46.429688 38.234375 Z "/>
<path style=" stroke:none;fill-rule:nonzero;fill:rgb(100%,100%,100%);fill-opacity:1;" d="M 50.789063 32.746094 L 52.421875 32.746094 L 53.972656 35.363281 L 55.511719 32.746094 L 57.136719 32.746094 L 54.679688 36.828125 L 54.679688 39.371094 L 53.21875 39.371094 L 53.21875 36.789063 Z "/>
<path style=" stroke:none;fill-rule:nonzero;fill:rgb(100%,100%,100%);fill-opacity:1;" d="M 72.515625 32.746094 L 75.285156 37.191406 L 75.300781 37.191406 L 75.300781 32.746094 L 76.667969 32.746094 L 76.667969 39.371094 L 75.210938 39.371094 L 72.453125 34.9375 L 72.433594 34.9375 L 72.433594 39.371094 L 71.066406 39.371094 L 71.066406 32.746094 Z "/>
<path style=" stroke:none;fill-rule:nonzero;fill:rgb(100%,100%,100%);fill-opacity:1;" d="M 82.195313 34.511719 C 82.109375 34.371094 82 34.25 81.871094 34.144531 C 81.738281 34.039063 81.59375 33.957031 81.429688 33.898438 C 81.265625 33.839844 81.09375 33.8125 80.914063 33.8125 C 80.585938 33.8125 80.308594 33.875 80.078125 34 C 79.851563 34.128906 79.664063 34.296875 79.523438 34.511719 C 79.378906 34.722656 79.277344 34.964844 79.210938 35.238281 C 79.148438 35.511719 79.113281 35.792969 79.113281 36.082031 C 79.113281 36.359375 79.148438 36.632813 79.210938 36.894531 C 79.277344 37.15625 79.378906 37.394531 79.523438 37.601563 C 79.664063 37.8125 79.851563 37.980469 80.078125 38.109375 C 80.308594 38.234375 80.585938 38.296875 80.914063 38.296875 C 81.359375 38.296875 81.707031 38.164063 81.957031 37.890625 C 82.207031 37.617188 82.363281 37.257813 82.417969 36.8125 L 83.828125 36.8125 C 83.789063 37.226563 83.695313 37.601563 83.539063 37.9375 C 83.386719 38.269531 83.179688 38.554688 82.925781 38.789063 C 82.675781 39.027344 82.378906 39.207031 82.035156 39.332031 C 81.695313 39.453125 81.324219 39.515625 80.914063 39.515625 C 80.40625 39.515625 79.949219 39.429688 79.546875 39.25 C 79.140625 39.078125 78.796875 38.832031 78.519531 38.523438 C 78.238281 38.214844 78.027344 37.851563 77.878906 37.433594 C 77.730469 37.015625 77.65625 36.566406 77.65625 36.082031 C 77.65625 35.585938 77.730469 35.128906 77.878906 34.703125 C 78.027344 34.28125 78.238281 33.910156 78.519531 33.59375 C 78.796875 33.28125 79.140625 33.03125 79.546875 32.851563 C 79.949219 32.671875 80.40625 32.585938 80.914063 32.585938 C 81.28125 32.585938 81.625 32.636719 81.949219 32.742188 C 82.273438 32.847656 82.566406 33 82.820313 33.203125 C 83.078125 33.402344 83.289063 33.652344 83.457031 33.949219 C 83.625 34.246094 83.726563 34.585938 83.773438 34.96875 L 82.363281 34.96875 C 82.335938 34.804688 82.28125 34.648438 82.195313 34.511719 Z "/>
<path style=" stroke:none;fill-rule:nonzero;fill:rgb(100%,100%,100%);fill-opacity:1;" d="M 98.355469 32.746094 L 101.121094 37.191406 L 101.136719 37.191406 L 101.136719 32.746094 L 102.503906 32.746094 L 102.503906 39.371094 L 101.046875 39.371094 L 98.292969 34.9375 L 98.273438 34.9375 L 98.273438 39.371094 L 96.90625 39.371094 L 96.90625 32.746094 Z "/>
<path style=" stroke:none;fill-rule:nonzero;fill:rgb(100%,100%,100%);fill-opacity:1;" d="M 106.640625 32.746094 C 107.066406 32.746094 107.464844 32.816406 107.835938 32.953125 C 108.203125 33.085938 108.519531 33.292969 108.789063 33.5625 C 109.058594 33.835938 109.269531 34.175781 109.421875 34.582031 C 109.574219 34.992188 109.648438 35.472656 109.648438 36.023438 C 109.648438 36.503906 109.585938 36.949219 109.464844 37.355469 C 109.339844 37.765625 109.152344 38.117188 108.902344 38.414063 C 108.652344 38.710938 108.339844 38.945313 107.964844 39.113281 C 107.589844 39.285156 107.148438 39.371094 106.640625 39.371094 L 103.78125 39.371094 L 103.78125 32.746094 Z M 106.539063 38.144531 C 106.75 38.144531 106.953125 38.109375 107.152344 38.039063 C 107.347656 37.972656 107.527344 37.859375 107.679688 37.703125 C 107.835938 37.546875 107.957031 37.339844 108.050781 37.085938 C 108.144531 36.832031 108.191406 36.523438 108.191406 36.160156 C 108.191406 35.828125 108.15625 35.527344 108.09375 35.257813 C 108.027344 34.988281 107.921875 34.757813 107.773438 34.566406 C 107.625 34.375 107.429688 34.226563 107.183594 34.125 C 106.9375 34.023438 106.636719 33.972656 106.28125 33.972656 L 105.238281 33.972656 L 105.238281 38.144531 Z "/>
<path style=" stroke:none;fill-rule:nonzero;fill:rgb(100%,100%,100%);fill-opacity:1;" d="M 87.800781 14.980469 C 87.804688 20.480469 83.351563 24.941406 77.847656 24.949219 C 72.347656 24.949219 67.886719 20.496094 67.882813 14.996094 C 67.882813 14.988281 67.882813 14.984375 67.882813 14.980469 C 67.878906 9.480469 72.332031 5.019531 77.835938 5.015625 C 83.335938 5.011719 87.796875 9.464844 87.800781 14.964844 C 87.800781 14.972656 87.800781 14.976563 87.800781 14.980469 Z "/>
<path style=" stroke:none;fill-rule:nonzero;fill:rgb(0%,0%,0%);fill-opacity:1;" d="M 77.824219 3.386719 C 81.078125 3.386719 83.824219 4.507813 86.070313 6.746094 C 88.316406 8.988281 89.4375 11.734375 89.4375 14.980469 C 89.4375 18.226563 88.335938 20.941406 86.128906 23.128906 C 83.785156 25.425781 81.019531 26.574219 77.824219 26.574219 C 74.671875 26.574219 71.953125 25.4375 69.667969 23.15625 C 67.386719 20.875 66.246094 18.152344 66.246094 14.980469 C 66.246094 11.8125 67.386719 9.066406 69.667969 6.746094 C 71.894531 4.507813 74.613281 3.386719 77.824219 3.386719 Z M 68.855469 11.867188 C 68.507813 12.84375 68.335938 13.882813 68.335938 14.980469 C 68.335938 17.550781 69.273438 19.773438 71.152344 21.648438 C 73.027344 23.523438 75.261719 24.460938 77.855469 24.460938 C 80.449219 24.460938 82.703125 23.511719 84.617188 21.617188 C 85.257813 21 85.789063 20.324219 86.203125 19.589844 L 81.832031 17.644531 C 81.535156 19.113281 80.222656 20.109375 78.640625 20.226563 L 78.640625 22.011719 L 77.308594 22.011719 L 77.308594 20.226563 C 76.007813 20.210938 74.75 19.679688 73.789063 18.835938 L 75.386719 17.226563 C 76.15625 17.949219 76.925781 18.273438 77.972656 18.273438 C 78.65625 18.273438 79.410156 18.007813 79.410156 17.121094 C 79.410156 16.808594 79.289063 16.589844 79.097656 16.425781 L 77.988281 15.933594 L 76.613281 15.320313 C 75.933594 15.015625 75.355469 14.761719 74.777344 14.503906 Z M 77.855469 5.472656 C 75.222656 5.472656 73 6.398438 71.179688 8.257813 C 70.683594 8.753906 70.253906 9.277344 69.886719 9.820313 L 74.320313 11.796875 C 74.722656 10.566406 75.890625 9.820313 77.308594 9.738281 L 77.308594 7.949219 L 78.640625 7.949219 L 78.640625 9.738281 C 79.558594 9.78125 80.5625 10.03125 81.554688 10.800781 L 80.03125 12.367188 C 79.46875 11.96875 78.757813 11.6875 78.046875 11.6875 C 77.472656 11.6875 76.65625 11.863281 76.65625 12.589844 C 76.65625 12.699219 76.695313 12.796875 76.761719 12.882813 L 78.246094 13.542969 L 79.25 13.988281 C 79.890625 14.277344 80.503906 14.546875 81.109375 14.816406 L 87.050781 17.464844 C 87.25 16.683594 87.347656 15.859375 87.347656 14.980469 C 87.347656 12.332031 86.417969 10.089844 84.5625 8.257813 C 82.722656 6.398438 80.488281 5.472656 77.855469 5.472656 Z "/>
<path style=" stroke:none;fill-rule:nonzero;fill:rgb(100%,100%,100%);fill-opacity:1;" d="M 114.667969 14.980469 C 114.671875 20.824219 109.9375 25.566406 104.09375 25.574219 C 98.246094 25.578125 93.503906 20.84375 93.5 14.996094 C 93.5 14.992188 93.5 14.984375 93.5 14.980469 C 93.496094 9.136719 98.230469 4.394531 104.078125 4.390625 C 109.921875 4.382813 114.664063 9.121094 114.667969 14.964844 C 114.667969 14.972656 114.667969 14.976563 114.667969 14.980469 Z "/>
<path style=" stroke:none;fill-rule:nonzero;fill:rgb(0%,0%,0%);fill-opacity:1;" d="M 103.917969 3.386719 C 100.707031 3.386719 97.988281 4.507813 95.761719 6.746094 C 93.476563 9.066406 92.335938 11.808594 92.335938 14.980469 C 92.335938 18.152344 93.476563 20.875 95.761719 23.15625 C 98.042969 25.4375 100.765625 26.574219 103.917969 26.574219 C 107.109375 26.574219 109.878906 25.425781 112.21875 23.128906 C 114.425781 20.941406 115.527344 18.226563 115.527344 14.980469 C 115.527344 11.734375 114.40625 8.988281 112.160156 6.746094 C 109.917969 4.507813 107.167969 3.386719 103.917969 3.386719 Z M 103.945313 5.472656 C 106.578125 5.472656 108.8125 6.398438 110.652344 8.257813 C 112.511719 10.089844 113.4375 12.332031 113.4375 14.980469 C 113.4375 17.648438 112.527344 19.859375 110.710938 21.617188 C 108.792969 23.511719 106.539063 24.457031 103.945313 24.457031 C 101.351563 24.457031 99.117188 23.523438 97.242188 21.648438 C 95.363281 19.773438 94.425781 17.550781 94.425781 14.980469 C 94.425781 12.410156 95.375 10.167969 97.269531 8.257813 C 99.089844 6.398438 101.3125 5.472656 103.945313 5.472656 Z "/>
<path style=" stroke:none;fill-rule:nonzero;fill:rgb(0%,0%,0%);fill-opacity:1;" d="M 108.3125 12.234375 L 99.886719 12.234375 L 99.886719 14.230469 L 108.3125 14.230469 Z M 108.3125 15.960938 L 99.886719 15.960938 L 99.886719 17.957031 L 108.3125 17.957031 Z "/>
<path style=" stroke:none;fill-rule:nonzero;fill:rgb(100%,100%,100%);fill-opacity:1;" d="M 62.503906 15.21875 C 62.503906 21.148438 57.695313 25.953125 51.765625 25.953125 C 45.832031 25.953125 41.023438 21.148438 41.023438 15.21875 C 41.023438 9.285156 45.832031 4.480469 51.765625 4.480469 C 57.695313 4.480469 62.503906 9.285156 62.503906 15.21875 Z "/>
<path style=" stroke:none;fill-rule:nonzero;fill:rgb(0%,0%,0%);fill-opacity:1;" d="M 54.871094 12.109375 C 54.871094 11.695313 54.535156 11.359375 54.121094 11.359375 L 49.378906 11.359375 C 48.964844 11.359375 48.628906 11.695313 48.628906 12.109375 L 48.628906 16.851563 L 49.953125 16.851563 L 49.953125 22.46875 L 53.546875 22.46875 L 53.546875 16.851563 L 54.871094 16.851563 Z "/>
<path style=" stroke:none;fill-rule:nonzero;fill:rgb(0%,0%,0%);fill-opacity:1;" d="M 53.375 9.113281 C 53.375 10.011719 52.648438 10.734375 51.75 10.734375 C 50.855469 10.734375 50.128906 10.011719 50.128906 9.113281 C 50.128906 8.21875 50.855469 7.492188 51.75 7.492188 C 52.648438 7.492188 53.375 8.21875 53.375 9.113281 Z "/>
<path style=" stroke:none;fill-rule:evenodd;fill:rgb(0%,0%,0%);fill-opacity:1;" d="M 51.738281 3.386719 C 48.523438 3.386719 45.804688 4.507813 43.582031 6.75 C 41.296875 9.066406 40.15625 11.8125 40.15625 14.980469 C 40.15625 18.148438 41.296875 20.875 43.582031 23.15625 C 45.863281 25.433594 48.582031 26.574219 51.738281 26.574219 C 54.929688 26.574219 57.695313 25.425781 60.039063 23.125 C 62.246094 20.941406 63.347656 18.226563 63.347656 14.980469 C 63.347656 11.734375 62.226563 8.988281 59.980469 6.75 C 57.734375 4.507813 54.988281 3.386719 51.738281 3.386719 Z M 51.765625 5.472656 C 54.398438 5.472656 56.632813 6.398438 58.46875 8.253906 C 60.328125 10.089844 61.257813 12.332031 61.257813 14.980469 C 61.257813 17.648438 60.347656 19.859375 58.527344 21.617188 C 56.613281 23.511719 54.359375 24.457031 51.765625 24.457031 C 49.171875 24.457031 46.9375 23.523438 45.058594 21.648438 C 43.183594 19.773438 42.246094 17.550781 42.246094 14.980469 C 42.246094 12.410156 43.191406 10.167969 45.089844 8.253906 C 46.910156 6.398438 49.132813 5.472656 51.765625 5.472656 Z "/>
</g>
</svg>
